<svg width="24" height="24" viewBox="0 0 24 24" fill="none" xmlns="http://www.w3.org/2000/svg">
<path d="M19.9999 16V20C19.9999 20.5304 19.7892 21.0391 19.4142 21.4142C19.0391 21.7893 18.5304 22 17.9999 22H3.99994C3.46951 22 2.9608 21.7893 2.58573 21.4142C2.21065 21.0391 1.99994 20.5304 1.99994 20V6C1.99994 5.46957 2.21065 4.96086 2.58573 4.58579C2.9608 4.21071 3.46951 4 3.99994 4H7.99994" stroke="white" stroke-width="1.51" stroke-linecap="round" stroke-linejoin="round"/>
<path d="M12.4999 15.8L21.9999 6.2L17.7999 2L8.29994 11.5L7.99994 16L12.4999 15.8Z" stroke="white" stroke-width="1.51" stroke-linecap="round" stroke-linejoin="round"/>
<line x1="14.6028" y1="4.43165" x2="19.5684" y2="9.39717" stroke="white" stroke-width="1.51"/>
</svg>
