<svg width="20" height="21" viewBox="0 0 20 21" fill="none" xmlns="http://www.w3.org/2000/svg">
<path d="M1 9.76879V15.7853C1 17.0454 1 17.6759 1.24524 18.1572C1.46095 18.5806 1.8049 18.9245 2.22828 19.1402C2.7091 19.3852 3.33886 19.3852 4.59652 19.3852H15.4035C16.6611 19.3852 17.29 19.3852 17.7708 19.1402C18.1942 18.9245 18.5393 18.5806 18.755 18.1572C19 17.6763 19 17.0469 19 15.7892V9.76879C19 9.16771 18.9994 8.86699 18.9264 8.58721C18.8616 8.33937 18.7553 8.10477 18.6114 7.89279C18.449 7.65358 18.2233 7.45522 17.7708 7.05938L12.3708 2.33438C11.5309 1.59943 11.1109 1.23214 10.6383 1.09237C10.2218 0.969212 9.77792 0.969212 9.36145 1.09237C8.88917 1.23203 8.46977 1.59898 7.63115 2.33281L2.22937 7.05938C1.77697 7.45522 1.55129 7.65358 1.38891 7.89279C1.24501 8.10477 1.13787 8.33937 1.07309 8.58721C1 8.86699 1 9.16771 1 9.76879Z" stroke="white" stroke-width="1.8" stroke-linecap="round" stroke-linejoin="round"/>
<path d="M5 15H15" stroke="white" stroke-width="1.5" stroke-linecap="round"/>
</svg>
