<svg width="350" height="220" viewBox="0 0 350 220" fill="none" xmlns="http://www.w3.org/2000/svg">
<path d="M25.2757 128.786C24.359 127.536 23.3017 126.557 22.109 125.848C20.9267 125.129 19.5361 124.765 17.9424 124.765C16.3017 124.765 14.9007 125.307 13.734 126.39C12.5674 127.473 11.984 128.765 11.984 130.265C11.984 131.655 12.5517 132.838 13.6924 133.807C14.8434 134.78 16.5465 135.697 18.7965 136.557C22.6715 138.155 25.4215 139.692 27.0465 141.161C28.6715 142.619 29.7965 144.197 30.4215 145.89C31.0465 147.572 31.359 149.426 31.359 151.452C31.359 156.426 29.8851 160.452 26.9424 163.536C24.0101 166.619 20.1299 168.161 15.2965 168.161C11.9215 168.161 8.98924 167.286 6.50486 165.536C4.0309 163.786 1.95278 161.489 0.275696 158.64L6.42153 152.619C7.1559 154.692 8.3434 156.4 9.98403 157.744C11.6194 159.077 13.3694 159.744 15.234 159.744C17.0361 159.744 18.5309 159.088 19.7132 157.765C20.9059 156.447 21.5049 154.754 21.5049 152.682C21.5049 150.879 20.9424 149.432 19.8174 148.348C18.7028 147.265 17.0465 146.296 14.8382 145.432C9.9632 143.572 6.62986 141.609 4.8382 139.536C3.04653 137.468 2.1507 134.744 2.1507 131.369C2.1507 128.786 2.75486 126.369 3.9632 124.119C5.17153 121.869 6.86945 120.077 9.06736 118.744C11.2757 117.411 13.7184 116.744 16.4007 116.744C18.7757 116.744 21.2653 117.286 23.8799 118.369C26.4892 119.442 28.4424 120.713 29.734 122.182L25.2757 128.786Z" fill="#3D3D3D"/>
<path d="M59.5737 116.744L71.6362 148.932L83.157 116.744H90.032L97.3445 166.869H87.7612L83.8654 136.557H83.7404L72.657 167.515H69.3654L58.6779 136.557H58.5529L54.1987 166.869H44.6154L52.8445 116.744H59.5737Z" fill="#3D3D3D"/>
<path d="M134.943 116.744L153.485 166.869H143.318L139.547 156.577H122.589L118.568 166.869H108.526L127.568 116.744H134.943ZM125.297 148.807H136.901L130.818 131.057H130.672L125.297 148.807Z" fill="#3D3D3D"/>
<path d="M180.599 118.036C185.734 118.036 189.692 119.301 192.474 121.827C195.265 124.359 196.661 127.994 196.661 132.744C196.661 136.192 195.724 139.197 193.849 141.765C191.974 144.338 189.583 145.838 186.682 146.265L200.474 166.869H188.953L177.099 147.181H176.974V166.869H167.453V118.036H180.599ZM176.974 140.515H178.015C181.291 140.515 183.63 139.911 185.036 138.702C186.437 137.494 187.14 135.593 187.14 132.994C187.14 130.452 186.442 128.619 185.057 127.494C183.682 126.369 181.375 125.806 178.14 125.806H176.974V140.515Z" fill="#3D3D3D"/>
<path d="M240.364 118.036V126.327H230.531V166.869H221.01V126.327H211.156V118.036H240.364Z" fill="#3D3D3D"/>
<path d="M279.161 118.036V126.327H264.453V137.077H278.244V145.369H264.453V166.869H254.932V118.036H279.161Z" fill="#FD7F57"/>
<path d="M305.505 118.036V166.869H295.984V118.036H305.505Z" fill="#FD7F57"/>
<path d="M349.213 118.036V126.327H339.38V166.869H329.859V126.327H320.005V118.036H349.213Z" fill="#FD7F57"/>
<mask id="mask0_134_88" style="mask-type:luminance" maskUnits="userSpaceOnUse" x="55" y="0" width="238" height="103">
<path d="M55.0104 0H292.01V103H55.0104V0Z" fill="white"/>
</mask>
<g mask="url(#mask0_134_88)">
<path d="M286.37 27.401H280.109L277.172 47.9948V18.7708C277.172 15.4531 274.484 12.7656 271.172 12.7656H265.625L261.75 39.9479V12.2083C261.75 5.47913 256.297 0.026001 249.568 0.026001C242.839 0.026001 237.385 5.47913 237.385 12.2083V43.6145H109.969V12.2083C109.969 5.47913 104.516 0.026001 97.7865 0.026001C91.0573 0.026001 85.6042 5.47913 85.6042 12.2083V39.9479L81.7292 12.7656H76.1875C72.8698 12.7656 70.1823 15.4531 70.1823 18.7708V47.9948L67.2448 27.401H60.9844C57.6719 27.401 54.9844 30.0885 54.9844 33.401V69.9166C54.9844 73.2343 57.6719 75.9218 60.9844 75.9218H70.1823V84.552C70.1823 87.8645 72.8698 90.552 76.1875 90.552H84.1615L85.8698 78.5833V93.625C87.026 99.1458 91.9219 103.292 97.7865 103.292C104.516 103.292 109.969 97.8385 109.969 91.1093V59.7083H237.385V91.1093C237.385 97.8385 242.839 103.292 249.568 103.292C255.432 103.292 260.328 99.1458 261.49 93.625V78.5833L263.193 90.552H271.172C274.484 90.552 277.172 87.8645 277.172 84.552V75.9218H286.37C289.682 75.9218 292.37 73.2343 292.37 69.9166V33.401C292.37 30.0885 289.682 27.401 286.37 27.401Z" fill="#3D3D3D"/>
</g>
<path d="M36.0811 190.98V214.75H43.3936V217.5H33.1228V190.98H36.0811Z" fill="#3D3D3D"/>
<path d="M55.6228 190.98V217.5H52.6853V190.98H55.6228Z" fill="#3D3D3D"/>
<path d="M68.0499 190.98L75.6124 211.209L83.1749 190.98H86.3624L75.6124 219.084L64.8416 190.98H68.0499Z" fill="#3D3D3D"/>
<path d="M109.283 190.98V193.73H98.4914V201.605H108.971V204.355H98.4914V214.75H109.283V217.5H95.533V190.98H109.283Z" fill="#3D3D3D"/>
<path d="M151.226 190.98V193.73H144.767V217.5H141.809V193.73H135.413V190.98H151.226Z" fill="#3D3D3D"/>
<path d="M164.586 190.98C170.92 190.98 174.086 193.417 174.086 198.292C174.086 200.334 173.493 202.021 172.316 203.355C171.133 204.678 169.508 205.428 167.441 205.605L175.878 217.5H172.253L164.253 205.855H163.503V217.5H160.545V190.98H164.586ZM163.503 203.25H164.816C166.899 203.25 168.467 202.87 169.524 202.105C170.592 201.329 171.128 200.125 171.128 198.5C171.128 196.75 170.607 195.521 169.566 194.813C168.524 194.094 167.014 193.73 165.045 193.73H163.503V203.25Z" fill="#3D3D3D"/>
<path d="M195.687 189.709L207.603 217.5H204.333L201.208 209.98H189.874L186.666 217.5H183.437L195.687 189.709ZM191.062 207.23H200.041L195.603 196.605L191.062 207.23Z" fill="#3D3D3D"/>
<path d="M236.994 196.792C235.869 195.667 234.603 194.802 233.202 194.188C231.812 193.579 230.379 193.271 228.911 193.271C227.036 193.271 225.265 193.782 223.598 194.792C221.932 195.792 220.609 197.141 219.64 198.834C218.682 200.516 218.202 202.323 218.202 204.25C218.202 206.125 218.687 207.917 219.661 209.625C220.645 211.334 221.963 212.698 223.619 213.709C225.286 214.709 227.067 215.209 228.973 215.209C230.4 215.209 231.812 214.912 233.202 214.313C234.603 213.704 235.869 212.829 236.994 211.688V215.355C235.869 216.177 234.619 216.813 233.244 217.271C231.869 217.73 230.478 217.959 229.077 217.959C226.728 217.959 224.478 217.375 222.327 216.209C220.187 215.032 218.473 213.386 217.182 211.271C215.9 209.162 215.265 206.855 215.265 204.355C215.265 201.87 215.879 199.563 217.119 197.438C218.369 195.313 220.062 193.636 222.202 192.396C224.353 191.146 226.645 190.521 229.077 190.521C230.577 190.521 232.041 190.771 233.473 191.271C234.9 191.761 236.077 192.375 236.994 193.125V196.792Z" fill="#3D3D3D"/>
<path d="M251.226 190.98V202.334L262.518 190.98H266.497L254.038 203.334L266.913 217.5H262.83L251.976 205.334L251.226 206.063V217.5H248.268V190.98H251.226Z" fill="#3D3D3D"/>
<path d="M289.794 190.98V193.73H279.002V201.605H289.481V204.355H279.002V214.75H289.794V217.5H276.044V190.98H289.794Z" fill="#3D3D3D"/>
<path d="M305.154 190.98C311.488 190.98 314.654 193.417 314.654 198.292C314.654 200.334 314.061 202.021 312.884 203.355C311.701 204.678 310.076 205.428 308.009 205.605L316.446 217.5H312.821L304.821 205.855H304.071V217.5H301.113V190.98H305.154ZM304.071 203.25H305.384C307.467 203.25 309.035 202.87 310.092 202.105C311.16 201.329 311.696 200.125 311.696 198.5C311.696 196.75 311.175 195.521 310.134 194.813C309.092 194.094 307.581 193.73 305.613 193.73H304.071V203.25Z" fill="#3D3D3D"/>
</svg>
