<svg width="34" height="34" viewBox="0 0 34 34" fill="none" xmlns="http://www.w3.org/2000/svg">
<g clip-path="url(#clip0_85_7)">
<path d="M9.99744 14.491L7.55082 15.9035C7.26128 16.0707 7.16207 16.441 7.32924 16.7305L11.7687 24.4199C11.9359 24.7094 12.3061 24.8086 12.5957 24.6415L15.0423 23.2289C15.3318 23.0617 15.431 22.6915 15.2639 22.4019L10.8244 14.7126C10.6572 14.423 10.287 14.3238 9.99744 14.491Z" stroke="white" stroke-width="1.51345" stroke-linecap="round" stroke-linejoin="round"/>
<path d="M20.4829 8.43719L18.0363 9.84974C17.7467 10.0169 17.6475 10.3872 17.8147 10.6767L22.2542 18.3661C22.4214 18.6556 22.7916 18.7548 23.0811 18.5877L25.5277 17.1751C25.8173 17.0079 25.9165 16.6377 25.7493 16.3481L21.3099 8.65878C21.1427 8.36923 20.7725 8.27001 20.4829 8.43719Z" stroke="white" stroke-width="1.51345" stroke-linecap="round" stroke-linejoin="round"/>
<path d="M8.13833 24.1857L5.71681 19.9915C5.54964 19.702 5.64885 19.3317 5.9384 19.1646L7.51122 18.2565C7.80077 18.0893 8.17102 18.1885 8.33819 18.4781L10.7597 22.6723C10.9269 22.9619 10.8277 23.3321 10.5381 23.4992L8.9653 24.4073C8.67575 24.5745 8.30552 24.4753 8.13833 24.1857Z" stroke="white" stroke-width="1.51345" stroke-linecap="round" stroke-linejoin="round"/>
<path d="M27.3618 13.0871L24.9402 8.89287C24.7731 8.60333 24.4028 8.5041 24.1133 8.67129L22.5404 9.57936C22.2509 9.74655 22.1517 10.1168 22.3189 10.4063L24.7404 14.6005C24.9076 14.8901 25.2778 14.9893 25.5674 14.8221L27.1402 13.914C27.4297 13.7469 27.5289 13.3766 27.3618 13.0871Z" stroke="white" stroke-width="1.51345" stroke-linecap="round" stroke-linejoin="round"/>
<path d="M13.0442 18.5572L20.0345 14.5214" stroke="white" stroke-width="1.51345" stroke-linecap="round" stroke-linejoin="round"/>
</g>
<defs>
<clipPath id="clip0_85_7">
<rect width="24.2152" height="24.2152" fill="white" transform="translate(0 12.1076) rotate(-30)"/>
</clipPath>
</defs>
</svg>
