<svg width="54" height="52" viewBox="0 0 54 52" fill="none" xmlns="http://www.w3.org/2000/svg">
<g clip-path="url(#clip0_14_83)">
<path d="M16.3206 22.3764L12.3266 24.5576C11.8539 24.8157 11.6919 25.3874 11.9648 25.8345L19.2121 37.7081C19.4851 38.1553 20.0895 38.3084 20.5621 38.0503L24.5562 35.8691C25.0289 35.6109 25.1908 35.0393 24.9179 34.5921L17.6706 22.7185C17.3977 22.2714 16.7933 22.1182 16.3206 22.3764Z" stroke="white" stroke-width="1.51345" stroke-linecap="round" stroke-linejoin="round"/>
<path d="M33.4379 13.0283L29.4438 15.2095C28.9711 15.4677 28.8092 16.0394 29.0821 16.4865L36.3294 28.3601C36.6023 28.8072 37.2067 28.9604 37.6794 28.7023L41.6734 26.5211C42.1462 26.2629 42.3081 25.6912 42.0352 25.2441L34.7879 13.3705C34.515 12.9234 33.9106 12.7702 33.4379 13.0283Z" stroke="white" stroke-width="1.51345" stroke-linecap="round" stroke-linejoin="round"/>
<path d="M13.2856 37.3466L9.33254 30.8701C9.05964 30.423 9.22159 29.8513 9.69428 29.5931L12.2619 28.1909C12.7346 27.9328 13.339 28.086 13.6119 28.5331L17.5649 35.0096C17.8379 35.4567 17.6759 36.0284 17.2032 36.2865L14.6356 37.6887C14.1629 37.9469 13.5585 37.7937 13.2856 37.3466Z" stroke="white" stroke-width="1.51345" stroke-linecap="round" stroke-linejoin="round"/>
<path d="M44.6674 20.2085L40.7144 13.732C40.4414 13.2849 39.8371 13.1317 39.3643 13.3898L36.7968 14.792C36.324 15.0502 36.1621 15.6219 36.435 16.069L40.3881 22.5455C40.661 22.9926 41.2654 23.1458 41.7381 22.8877L44.3057 21.4855C44.7784 21.2273 44.9404 20.6556 44.6674 20.2085Z" stroke="white" stroke-width="1.51345" stroke-linecap="round" stroke-linejoin="round"/>
<path d="M21.2943 28.6553L32.7058 22.4233" stroke="white" stroke-width="1.51345" stroke-linecap="round" stroke-linejoin="round"/>
</g>
<defs>
<clipPath id="clip0_14_83">
<rect width="39.0071" height="37.9381" fill="white" transform="matrix(0.877652 -0.479299 0.52099 0.853563 0 18.696)"/>
</clipPath>
</defs>
</svg>
